<svg width="324" height="70" viewBox="0 0 324 70" fill="none" xmlns="http://www.w3.org/2000/svg">
<path d="M107.489 14.7495H114.226L126.584 50.7784H119.847L116.858 41.2711H104.868L101.879 50.7784H95.142L107.5 14.7495H107.489ZM114.961 35.3506L110.846 22.2795L106.73 35.3506H114.961Z" fill="white"/>
<path d="M131.527 14.7495H148.254C150.151 14.7495 151.898 15.0599 153.496 15.6807C155.037 16.3015 156.382 17.1752 157.463 18.3018C158.543 19.4284 159.417 20.7735 160.026 22.36C160.647 23.9579 160.957 25.7628 160.957 27.7172C160.957 30.5452 160.337 32.9594 159.049 34.9712C157.773 37.029 156.014 38.512 153.761 39.4432L161.164 50.7669H153.554L146.794 40.4664H137.954V50.7669H131.527V14.7495ZM147.622 34.5804C149.737 34.5804 151.381 33.9596 152.669 32.672C153.899 31.4419 154.52 29.7405 154.52 27.5792C154.52 25.4179 153.899 23.8315 152.669 22.5439C151.381 21.3138 149.737 20.693 147.622 20.693H137.954V34.5919H147.622V34.5804Z" fill="white"/>
<path d="M166.866 32.5225C166.866 29.6945 167.269 27.1768 168.142 24.9121C168.97 22.6473 170.154 20.693 171.752 19.095C173.339 17.4971 175.247 16.267 177.454 15.3933C179.673 14.5196 182.191 14.1057 185.03 14.1057C187.87 14.1057 190.376 14.5196 192.641 15.3933C194.859 16.267 196.756 17.4971 198.354 19.095C199.952 20.693 201.125 22.6473 202.01 24.9121C202.826 27.1768 203.24 29.6945 203.24 32.5225C203.24 35.3506 202.884 37.6613 202.102 39.6731C201.332 41.6735 200.251 43.4324 198.768 44.8694H204.068V50.7784H185.019C182.191 50.7784 179.673 50.376 177.443 49.5023C175.235 48.6746 173.327 47.4905 171.741 45.8925C170.143 44.3061 168.959 42.3977 168.131 40.133C167.257 37.8682 166.855 35.3506 166.855 32.5225H166.866ZM173.304 32.5225C173.304 36.4772 174.327 39.5122 176.385 41.639C178.397 43.8002 181.271 44.8809 185.042 44.8809C188.812 44.8809 191.629 43.8002 193.733 41.639C195.791 39.5237 196.825 36.4887 196.825 32.5225C196.825 28.5564 195.791 25.5099 193.733 23.3026C191.629 21.0954 188.743 20.0147 185.042 20.0147C181.34 20.0147 178.408 21.0954 176.385 23.3026C174.327 25.5099 173.304 28.5449 173.304 32.5225Z" fill="white"/>
<path d="M224.037 51.4682C221.818 51.4682 219.864 51.1578 218.116 50.537C216.369 49.9162 214.874 49.0425 213.644 47.8584C212.403 46.6743 211.483 45.2948 210.816 43.6393C210.15 41.9954 209.782 40.1445 209.782 38.0867V14.7495H216.231V38.5235C216.231 40.7423 216.944 42.4897 218.335 43.6738C219.726 44.9039 221.623 45.5247 224.094 45.5247C226.566 45.5247 228.67 44.9039 230.061 43.6738C231.452 42.4897 232.119 40.7423 232.119 38.5235V14.7495H238.545V38.0637C238.545 40.1215 238.246 41.9724 237.568 43.6163C236.901 45.2718 235.924 46.6513 234.694 47.8354C233.452 49.0195 231.969 49.8932 230.222 50.514C228.463 51.1348 226.509 51.4452 224.301 51.4452H224.048L224.037 51.4682Z" fill="white"/>
<path d="M251.961 14.7495H245.535V50.7784H251.961V14.7495Z" fill="white"/>
<path d="M258.192 14.7495H283.403V19.141L266.423 44.8694H283.403V50.7784H258.192V46.4099L275.172 20.6815H258.192V14.7495Z" fill="white"/>
<path d="M287.564 32.764C287.564 29.9359 287.967 27.4183 288.841 25.1075C289.668 22.7853 290.852 20.831 292.45 19.187C294.037 17.5891 295.945 16.313 298.152 15.4278C300.371 14.5541 302.889 14.0942 305.728 14.0942C308.568 14.0942 311.074 14.5541 313.339 15.4278C315.558 16.313 317.454 17.5891 319.052 19.187C320.65 20.831 321.834 22.7853 322.708 25.1075C323.524 27.4183 323.938 29.9359 323.938 32.764C323.938 35.592 323.524 38.1212 322.708 40.4434C321.834 42.7541 320.65 44.7085 319.052 46.3639C317.454 48.0079 315.558 49.2954 313.339 50.1691C311.074 51.0428 308.556 51.5027 305.728 51.5027C302.9 51.5027 300.383 51.0428 298.152 50.1691C295.945 49.2954 294.037 48.0079 292.45 46.3639C290.852 44.7085 289.668 42.7541 288.841 40.4434C287.967 38.1327 287.564 35.6035 287.564 32.764ZM293.991 32.764C293.991 34.7183 294.244 36.4657 294.819 38.0637C295.324 39.6617 296.095 41.0527 297.072 42.1333C298.049 43.214 299.291 44.0877 300.785 44.651C302.222 45.2718 303.866 45.5707 305.717 45.5707C307.568 45.5707 309.212 45.2718 310.706 44.651C312.143 44.0877 313.385 43.214 314.408 42.1333C315.385 41.0527 316.155 39.6617 316.73 38.0637C317.236 36.4657 317.5 34.7183 317.5 32.764C317.5 30.8096 317.236 29.0622 316.73 27.4642C316.155 25.8778 315.385 24.5327 314.408 23.4521C313.385 22.3715 312.143 21.4978 310.706 20.8885C309.212 20.3251 307.568 20.0148 305.717 20.0148C303.866 20.0148 302.222 20.3251 300.785 20.8885C299.291 21.4978 298.049 22.3715 297.072 23.4521C296.095 24.5327 295.324 25.8778 294.819 27.4642C294.244 29.0622 293.991 30.8096 293.991 32.764Z" fill="white"/>
<path d="M29.3956 0L51.2612 21.8657L29.3956 43.7313V21.8657V0L4.40295 26.5561V46.6858H23.3141V65.597H52.5028L73.9086 44.2027V0H29.3956Z" fill="#FF212E"/>
<path d="M18.9112 51.0888H0V70H18.9112V51.0888Z" fill="#FF212E"/>
</svg>
